<svg width="28" height="28" viewBox="0 0 28 28" fill="none" xmlns="http://www.w3.org/2000/svg">
<path d="M14 9.5C13.4091 9.5 12.8239 9.6164 12.278 9.84254C11.732 10.0687 11.2359 10.4002 10.8181 10.818C10.4002 11.2359 10.0687 11.732 9.84257 12.2779C9.61643 12.8239 9.50003 13.4091 9.50003 14C9.50003 14.5909 9.61643 15.1761 9.84257 15.7221C10.0687 16.268 10.4002 16.7641 10.8181 17.182C11.2359 17.5998 11.732 17.9313 12.278 18.1575C12.8239 18.3836 13.4091 18.5 14 18.5C15.1935 18.5 16.3381 18.0259 17.182 17.182C18.0259 16.3381 18.5 15.1935 18.5 14C18.5 12.8065 18.0259 11.6619 17.182 10.818C16.3381 9.97411 15.1935 9.5 14 9.5ZM11 14C11 13.606 11.0776 13.2159 11.2284 12.8519C11.3792 12.488 11.6001 12.1573 11.8787 11.8787C12.1573 11.6001 12.488 11.3791 12.852 11.2284C13.216 11.0776 13.6061 11 14 11C14.394 11 14.7841 11.0776 15.1481 11.2284C15.5121 11.3791 15.8428 11.6001 16.1214 11.8787C16.3999 12.1573 16.6209 12.488 16.7717 12.8519C16.9224 13.2159 17 13.606 17 14C17 14.7956 16.684 15.5587 16.1214 16.1213C15.5587 16.6839 14.7957 17 14 17C13.2044 17 12.4413 16.6839 11.8787 16.1213C11.3161 15.5587 11 14.7956 11 14ZM21.71 22.395L19.982 21.636C19.7361 21.5291 19.4686 21.4813 19.2008 21.4962C18.9331 21.5111 18.6726 21.5885 18.44 21.722C17.973 21.992 17.675 22.469 17.616 23.006L17.408 24.886C17.3875 25.0751 17.3089 25.2531 17.183 25.3957C17.0571 25.5382 16.8901 25.6383 16.705 25.682C14.9258 26.105 13.0722 26.105 11.293 25.682C11.1081 25.6381 10.9414 25.538 10.8157 25.3954C10.69 25.2529 10.6115 25.0749 10.591 24.886L10.383 23.009C10.3532 22.7448 10.2619 22.4913 10.1164 22.2688C9.97083 22.0464 9.77515 21.8611 9.54503 21.728C9.31504 21.5955 9.05723 21.5188 8.79224 21.5038C8.52725 21.4889 8.26245 21.5362 8.01903 21.642L6.29103 22.401C6.11635 22.4777 5.92213 22.4983 5.73526 22.4598C5.54839 22.4212 5.37813 22.3256 5.24803 22.186C4.0053 20.8524 3.07993 19.2554 2.54103 17.514C2.48388 17.331 2.48535 17.1346 2.54523 16.9525C2.60512 16.7703 2.72042 16.6114 2.87503 16.498L4.40203 15.37C4.617 15.2121 4.79179 15.0058 4.91226 14.7678C5.03273 14.5298 5.0955 14.2668 5.0955 14C5.0955 13.7332 5.03273 13.4702 4.91226 13.2322C4.79179 12.9942 4.617 12.7879 4.40203 12.63L2.87503 11.505C2.72022 11.3915 2.60479 11.2324 2.54489 11.0501C2.485 10.8677 2.48365 10.6712 2.54103 10.488C3.07993 8.74769 4.00611 7.15208 5.25003 5.821C5.38024 5.6816 5.55057 5.58613 5.73743 5.54779C5.92429 5.50945 6.11845 5.53014 6.29303 5.607L8.01303 6.364C8.25776 6.46933 8.52376 6.51591 8.78972 6.50001C9.05568 6.48411 9.31423 6.40618 9.54467 6.27244C9.77511 6.1387 9.97105 5.95288 10.1168 5.72984C10.2626 5.50681 10.3541 5.25275 10.384 4.988L10.594 3.11C10.6147 2.9188 10.6949 2.73889 10.8231 2.59557C10.9514 2.45226 11.1213 2.35274 11.309 2.311C12.189 2.115 13.0904 2.01133 14.013 2C14.915 2.01 15.813 2.115 16.693 2.311C16.8809 2.35279 17.051 2.45246 17.1792 2.59598C17.3075 2.73949 17.3875 2.91962 17.408 3.111L17.617 4.989C17.6619 5.40556 17.859 5.79089 18.1705 6.07105C18.482 6.3512 18.8861 6.50645 19.305 6.507C19.538 6.507 19.769 6.458 19.985 6.363L21.705 5.606C21.8796 5.52914 22.0738 5.50845 22.2606 5.54679C22.4475 5.58513 22.6178 5.6806 22.748 5.82C23.9916 7.15118 24.9174 8.74678 25.456 10.487C25.5133 10.6699 25.512 10.8662 25.4523 11.0483C25.3926 11.2305 25.2775 11.3894 25.123 11.503L23.598 12.63C23.163 12.95 22.9 13.459 22.9 14C22.9 14.54 23.163 15.049 23.599 15.37L25.125 16.496C25.441 16.73 25.575 17.138 25.459 17.513C24.9194 19.2526 23.9941 20.8479 22.752 22.18C22.6219 22.3196 22.4517 22.4152 22.2648 22.4538C22.0779 22.4923 21.8847 22.4717 21.71 22.395ZM16.262 22.197C16.5005 21.4496 17.0084 20.8176 17.687 20.424C18.1235 20.1725 18.6129 20.0269 19.1159 19.999C19.6188 19.971 20.1214 20.0614 20.583 20.263L21.927 20.853C22.7896 19.8529 23.4578 18.7005 23.897 17.455L22.708 16.578C22.3028 16.2812 21.9732 15.8921 21.7458 15.4443C21.5184 14.9964 21.3996 14.5013 21.399 13.999C21.399 12.972 21.896 12.019 22.706 11.423L22.708 11.422L23.895 10.545C23.4554 9.29978 22.7869 8.14767 21.924 7.148L20.591 7.734L20.589 7.735C20.183 7.915 19.746 8.007 19.303 8.007C18.5151 8.00626 17.7552 7.71485 17.1688 7.1886C16.5824 6.66234 16.2107 5.93824 16.125 5.155V5.153L15.962 3.693C15.3187 3.57331 14.6663 3.50874 14.012 3.5C13.3387 3.50933 12.6804 3.57367 12.037 3.693L11.874 5.154C11.8179 5.65243 11.6457 6.13076 11.3712 6.55054C11.0966 6.97033 10.7275 7.31986 10.2933 7.57107C9.85918 7.82228 9.37216 7.96815 8.87141 7.99697C8.37066 8.02579 7.87012 7.93675 7.41003 7.737L6.07403 7.149C5.21116 8.14867 4.54269 9.30078 4.10303 10.546L5.29303 11.423C5.69717 11.7204 6.02572 12.1086 6.25216 12.5563C6.4786 13.004 6.59659 13.4988 6.59659 14.0005C6.59659 14.5022 6.4786 14.997 6.25216 15.4447C6.02572 15.8924 5.69717 16.2806 5.29303 16.578L4.10303 17.456C4.54172 18.7033 5.20988 19.8575 6.07303 20.859L7.41803 20.269C7.87683 20.0687 8.37622 19.9788 8.87607 20.0066C9.37591 20.0344 9.86226 20.1791 10.296 20.429C10.7294 20.6794 11.0981 21.0279 11.3723 21.4467C11.6466 21.8654 11.8187 22.3426 11.875 22.84V22.845L12.037 24.309C13.334 24.564 14.667 24.564 15.964 24.309L16.126 22.842C16.15 22.6207 16.196 22.4057 16.264 22.197" fill="white"/>
</svg>
